#!OML:ASF X:\für Bonn\!DataBase\2005_08_10_Bjorn_Final\c3d\bjorn.ASF
:FULLY-SPECIFIED
:DEGREES
17
root 0.108679 19.1233 3.40085 -178.468 -14.6201 178.762
lowerback -3.88199 1.98628 -0.0491095
upperback 7.38127 2.33437 -0.0912778
thorax 10.0033 0.985678 0.194689
lowerneck -7.72063 -2.76923 -3.41304
upperneck 21.5955 -3.76472 -2.91246
head 7.94974 -2.71938 -0.784722
rclavicle -7.57867e-014 1.5704e-014
rhumerus -37.3247 -40.1844 -67.7555
rradius 16.8692
rwrist 19.4721
rhand -5.61593 12.4197
rfingers 7.12502
rthumb 20.2015 -16.5499
lclavicle -7.57867e-014 1.5704e-014
lhumerus -20.2185 -31.5634 78.8148
lradius 58.3051
lwrist -11.6815
lhand -25.7278 -14.0507
lfingers 7.12502
lthumb 0.808669 15.9275
rfemur -10.906 -19.384 17.6502
rtibia 32.7398
rfoot -23.5964 -2.41037
rtoes -20.4926
lfemur -13.6104 8.06293 -21.1785
ltibia 32.3954
lfoot -12.8244 -16.3459
ltoes 6.01375
18
root 0.0991297 19.1181 3.41132 -178.517 -14.9915 178.785
lowerback -3.72773 1.94837 -0.177271
upperback 7.59337 2.26907 -0.0960591
thorax 10.1421 0.93254 0.249777
lowerneck -7.75255 -2.79921 -3.42565
upperneck 21.1425 -3.74106 -2.97566
head 7.80398 -2.68806 -0.790535
rclavicle 8.05078e-015 3.57812e-015
rhumerus -37.5675 -40.0317 -67.7635
rradius 16.7858
rwrist 20.9196
rhand -5.46423 12.7323
rfingers 7.12502
rthumb 20.3473 -16.2218
lclavicle 8.05078e-015 3.57812e-015
lhumerus -20.4806 -32.0685 78.5105
lradius 59.5628
lwrist -11.3368
lhand -26.3159 -13.9352
lfingers 7.12502
lthumb 0.240687 16.0445
rfemur -10.8676 -19.7918 17.6199
rtibia 32.7883
rfoot -23.697 -2.53795
rtoes -21.1928
lfemur -13.6341 7.58897 -21.2
ltibia 32.4645
lfoot -12.7694 -16.3459
ltoes 6.33691
19
root 0.0879094 19.1129 3.42214 -178.544 -15.311 178.808
lowerback -3.61328 1.94584 -0.266594
upperback 7.81417 2.24907 -0.121898
thorax 10.3178 0.904439 0.267651
lowerneck -7.82051 -2.84882 -3.43518
upperneck 20.7249 -3.75502 -2.98984
head 7.67803 -2.67066 -0.785824
rclavicle 4.07012e-014 -7.55382e-015
rhumerus -37.8761 -40.1761 -67.6085
rradius 16.5931
rwrist 22.8088
rhand -5.42639 13.0831
rfingers 7.12502
rthumb 20.3837 -15.8671
lclavicle 4.07012e-014 -7.55382e-015
lhumerus -20.7237 -32.5932 78.1835
lradius 60.7554
lwrist -11.0461
lhand -26.8836 -13.9132
lfingers 7.12502
lthumb -0.307692 16.0664
rfemur -10.8639 -20.1605 17.5976
rtibia 32.8402
rfoot -23.7699 -2.68917
rtoes -21.9982
lfemur -13.6776 7.1304 -21.2318
ltibia 32.5378
lfoot -12.7362 -16.3298
ltoes 6.62901
20
root 0.0771513 19.1068 3.43272 -178.608 -15.5821 178.853
lowerback -3.46951 1.94702 -0.370013
upperback 8.031 2.23095 -0.11442
thorax 10.47 0.873962 0.327937
lowerneck -7.86146 -2.87546 -3.49843
upperneck 20.2858 -3.73646 -2.98659
head 7.54235 -2.64067 -0.762978
rclavicle -1.38155e-014 5.96354e-016
rhumerus -38.0814 -39.9984 -67.6061
rradius 16.4286
rwrist 24.5957
rhand -5.37734 13.2933
rfingers 7.12502
rthumb 20.4308 -15.6518
lclavicle -1.38155e-014 5.96354e-016
lhumerus -21.0622 -32.9949 77.9436
lradius 61.86
lwrist -10.7855
lhand -27.422 -14.0865
lfingers 7.12502
lthumb -0.827644 15.8917
rfemur -10.8363 -20.3383 17.6082
rtibia 32.8981
rfoot -23.852 -2.99096
rtoes -22.8528
lfemur -13.6858 6.76341 -21.2373
ltibia 32.6061
lfoot -12.7113 -16.3198
ltoes 6.84705
21
root 0.0644307 19.102 3.44442 -178.662 -15.8251 178.9
lowerback -3.34217 1.95169 -0.449464
upperback 8.25404 2.21486 -0.116232
thorax 10.6412 0.845826 0.365613
lowerneck -7.90462 -2.90476 -3.564
upperneck 19.8046 -3.71924 -2.98792
head 7.39381 -2.61017 -0.740813
rclavicle -3.76697e-014 1.0138e-014
rhumerus -38.1653 -39.6352 -67.7811
rradius 16.2782
rwrist 26.3804
rhand -5.2957 13.425
rfingers 7.12502
rthumb 20.5093 -15.5118
lclavicle -3.76697e-014 1.0138e-014
lhumerus -21.428 -33.3872 77.7264
lradius 62.8701
lwrist -10.3404
lhand -28.1049 -14.4431
lfingers 7.12502
lthumb -1.48727 15.5315
rfemur -10.8168 -20.1895 17.6315
rtibia 32.9631
rfoot -24.002 -3.37525
rtoes -23.0987
lfemur -13.6997 6.32927 -21.2512
ltibia 32.6643
lfoot -12.6774 -16.2263
ltoes 7.07498
22
root 0.0519308 19.0983 3.4572 -178.749 -16.0378 178.947
lowerback -3.1918 1.9838 -0.518344
upperback 8.49656 2.23139 -0.124508
thorax 10.8217 0.83272 0.393697
lowerneck -7.96094 -2.95792 -3.64475
upperneck 19.3031 -3.73576 -2.96748
head 7.2426 -2.59376 -0.71218
rclavicle -2.22639e-014 1.63003e-014
rhumerus -38.202 -39.1845 -68.0449
rradius 16.1801
rwrist 28.0579
rhand -5.14143 13.519
rfingers 7.12502
rthumb 20.6575 -15.4017
lclavicle -2.22639e-014 1.63003e-014
lhumerus -21.7728 -33.7993 77.5394
lradius 63.7555
lwrist -9.63578
lhand -28.7963 -15.0975
lfingers 7.12502
lthumb -2.15494 14.8714
rfemur -10.7727 -19.7845 17.6484
rtibia 33.0426
rfoot -24.1579 -3.81389
rtoes -22.8487
lfemur -13.6672 5.90501 -21.2619
ltibia 32.7041
lfoot -12.6474 -16.1162
ltoes 7.40567
23
root 0.0391574 19.0963 3.47067 -178.802 -16.2162 179.011
lowerback -3.09908 2.0221 -0.5697
upperback 8.74828 2.25375 -0.126482
thorax 11.049 0.822485 0.421193
lowerneck -8.04128 -3.00212 -3.714
upperneck 18.7471 -3.73252 -2.98029
head 7.07774 -2.56786 -0.694217
rclavicle 6.34123e-014 -1.75924e-014
rhumerus -38.0393 -38.4239 -68.5284
rradius 16.0946
rwrist 29.458
rhand -5.00064 13.5363
rfingers 7.12502
rthumb 20.7928 -15.3696
lclavicle 6.34123e-014 -1.75924e-014
lhumerus -22.0521 -34.1684 77.353
lradius 64.5086
lwrist -8.9321
lhand -29.5007 -15.8659
lfingers 7.12502
lthumb -2.83528 14.095
rfemur -10.799 -19.2437 17.7151
rtibia 33.1484
rfoot -24.3015 -4.38585
rtoes -22.9724
lfemur -13.6716 5.50028 -21.2654
ltibia 32.7309
lfoot -12.6439 -15.9668
ltoes 7.47331
24
root 0.0254567 19.0947 3.48606 -178.91 -16.3646 179.095
lowerback -2.95979 2.08463 -0.5769
upperback 9.02867 2.29911 -0.135976
thorax 11.2839 0.824756 0.417266
lowerneck -8.13108 -3.06056 -3.75374
upperneck 18.1544 -3.75312 -2.99121
head 6.90286 -2.54965 -0.682251
rclavicle 3.54831e-014 -6.16232e-015
rhumerus -37.8203 -37.5658 -69.134
rradius 16.0929
rwrist 30.5663
rhand -4.83327 13.4883
rfingers 7.12502
rthumb 20.9536 -15.3999
lclavicle 3.54831e-014 -6.16232e-015
lhumerus -22.2542 -34.5522 77.1373
lradius 65.1104
lwrist -8.35592
lhand -30.1223 -16.6767
lfingers 7.12502
lthumb -3.43555 13.2753
rfemur -10.7988 -18.5063 17.7895
rtibia 33.3077
rfoot -24.4425 -5.04275
rtoes -23.0582
lfemur -13.616 5.04243 -21.2485
ltibia 32.7372
lfoot -12.6039 -15.7526
ltoes 7.88632
25
root 0.0103995 19.0935 3.50706 -179.026 -16.4872 179.148
lowerback -2.75447 2.14255 -0.585973
upperback 9.30222 2.33646 -0.161173
thorax 11.4724 0.823256 0.393939
lowerneck -8.19383 -3.09911 -3.79611
upperneck 17.5393 -3.75148 -3.00387
head 6.71683 -2.52161 -0.667988
rclavicle -1.38404e-014 7.7526e-015
rhumerus -37.5993 -36.6927 -69.7381
rradius 16.109
rwrist 31.609
rhand -4.7726 13.3508
rfingers 7.12502
rthumb 21.0119 -15.531
lclavicle -1.38404e-014 7.7526e-015
lhumerus -22.4659 -34.8345 76.96
lradius 65.598
lwrist -7.88307
lhand -30.4891 -17.408
lfingers 7.12502
lthumb -3.78979 12.538
rfemur -10.8543 -17.7668 17.8274
rtibia 33.5417
rfoot -24.4903 -5.77517
rtoes -23.6401
lfemur -13.5528 4.62771 -21.2697
ltibia 32.7403
lfoot -12.602 -15.5281
ltoes 7.89241
26
root -0.00533421 19.0925 3.53292 -179.169 -16.5615 179.212
lowerback -2.48784 2.2318 -0.544647
upperback 9.57446 2.40904 -0.195622
thorax 11.6255 0.843118 0.3345
lowerneck -8.25272 -3.14664 -3.80867
upperneck 16.921 -3.76938 -3.02172
head 6.52918 -2.50209 -0.662055
rclavicle -9.11179e-014 3.06625e-014
rhumerus -37.4169 -35.9762 -70.249
rradius 16.118
rwrist 32.5147
rhand -4.71106 13.1958
rfingers 7.12502
rthumb 21.071 -15.6794
lclavicle -9.11179e-014 3.06625e-014
lhumerus -22.6457 -35.1241 76.7776
lradius 66.0192
lwrist -7.58694
lhand -30.6019 -17.9566
lfingers 7.12502
lthumb -3.89868 11.9875
rfemur -10.9391 -16.8957 17.8694
rtibia 33.8672
rfoot -24.4969 -6.49121
rtoes -24.2021
lfemur -13.4737 4.25728 -21.279
ltibia 32.7472
lfoot -12.5736 -15.3039
ltoes 8.08253
27
root -0.0194714 19.0907 3.5598 -179.301 -16.6106 179.239
lowerback -2.22495 2.32831 -0.555018
upperback 9.86325 2.49352 -0.250236
thorax 11.7996 0.863147 0.283126
lowerneck -8.35692 -3.17974 -3.72157
upperneck 16.2965 -3.77226 -3.09529
head 6.34483 -2.47402 -0.689822
rclavicle 1.31198e-014 -3.23025e-015
rhumerus -37.1516 -35.1842 -70.8606
rradius 16.1526
rwrist 33.0701
rhand -4.58534 13.0299
rfingers 7.12502
rthumb 21.1918 -15.8318
lclavicle 1.31198e-014 -3.23025e-015
lhumerus -22.828 -35.3306 76.5669
lradius 66.3763
lwrist -7.66227
lhand -30.8153 -18.4817
lfingers 7.12502
lthumb -4.10474 11.4585
rfemur -11.0927 -16.0014 17.8736
rtibia 34.3075
rfoot -24.443 -7.25091
rtoes -25.097
lfemur -13.4101 4.01309 -21.3183
ltibia 32.7644
lfoot -12.5699 -15.1821
ltoes 8.18727
